<svg width="24" height="24" viewBox="0 0 24 24" fill="none" xmlns="http://www.w3.org/2000/svg">
<g clip-path="url(#clip0_153_1689)">
<path d="M8 6C9.5913 6 11.1174 6.63214 12.2426 7.75736C13.3679 8.88258 14 10.4087 14 12C14 13.5913 13.3679 15.1174 12.2426 16.2426C11.1174 17.3679 9.5913 18 8 18C6.4087 18 4.88258 17.3679 3.75736 16.2426C2.63214 15.1174 2 13.5913 2 12C2 10.4087 2.63214 8.88258 3.75736 7.75736C4.88258 6.63214 6.4087 6 8 6ZM17 7C18.5 7 19.5 9.239 19.5 12C19.5 14.761 18.5 17 17 17C15.5 17 14.5 14.761 14.5 12C14.5 9.239 15.5 7 17 7ZM21 7.5C21.38 7.5 21.712 8.327 21.88 9.746L21.927 10.189L21.946 10.424L21.976 10.918L21.986 11.177L21.998 11.718L22 12L21.998 12.282L21.986 12.823L21.976 13.083L21.946 13.576L21.926 13.811L21.881 14.254C21.712 15.674 21.381 16.5 21 16.5C20.62 16.5 20.288 15.673 20.12 14.254L20.073 13.811C20.0661 13.7327 20.0598 13.6544 20.054 13.576L20.024 13.082C20.0201 12.9957 20.0168 12.9094 20.014 12.823L20.002 12.282V11.718L20.014 11.177L20.024 10.917L20.054 10.424L20.074 10.189L20.119 9.746C20.288 8.326 20.619 7.5 21 7.5Z" fill="black"/>
</g>
<defs>
<clipPath id="clip0_153_1689">
<rect width="24" height="24" fill="white"/>
</clipPath>
</defs>
</svg>
