<svg width="85" height="85" viewBox="0 0 85 85" fill="none" xmlns="http://www.w3.org/2000/svg">
<path d="M76.6328 20.3867L44.5586 1.92578C44.0273 1.59375 43.2969 1.46094 42.5 1.46094C41.7031 1.46094 40.9727 1.66016 40.4414 1.92578L8.56641 20.4531C7.4375 21.1172 6.64062 22.7773 6.64062 24.0391V61.0273C6.64062 61.7578 6.77344 62.6211 7.30469 63.3516L78.2266 22.1797C77.8281 21.3828 77.2305 20.7852 76.6328 20.3867Z" fill="#659AD3"/>
<path d="M7.10547 63.2852C7.4375 63.8164 7.90234 64.2812 8.36719 64.5469L40.375 83.0742C40.9062 83.4063 41.6367 83.5391 42.4336 83.5391C43.2305 83.5391 43.9609 83.3398 44.4922 83.0742L76.3672 64.5469C77.4961 63.8828 78.293 62.2227 78.293 60.9609V23.9727C78.293 23.375 78.2266 22.7109 77.8945 22.1133L7.10547 63.2852Z" fill="#03599C"/>
<path d="M56.6445 50.5352C53.8555 55.4492 48.543 58.7695 42.5 58.7695C33.5352 58.7695 26.2305 51.4648 26.2305 42.5C26.2305 33.5352 33.5352 26.2305 42.5 26.2305C48.543 26.2305 53.8555 29.5508 56.6445 34.5312L65.2773 29.5508C60.7617 21.6484 52.2617 16.2695 42.5 16.2695C28.0234 16.2695 16.2695 28.0234 16.2695 42.5C16.2695 56.9766 28.0234 68.7305 42.5 68.7305C52.1953 68.7305 60.6953 63.418 65.2109 55.582L56.6445 50.5352Z" fill="white"/>
</svg>
