<svg width="85" height="85" viewBox="0 0 85 85" fill="none" xmlns="http://www.w3.org/2000/svg">
<path d="M15.6771 72.2527L9.71118 5.3125H75.2887L69.3148 72.242L42.4601 79.6875L15.6771 72.2527Z" fill="#1572B6"/>
<path d="M42.5 73.9978L64.2016 67.9814L69.3069 10.787H42.5V73.9978Z" fill="#33A9DC"/>
<path d="M42.5 35.0386H53.3641L54.1131 26.6316H42.5V18.4211H63.0859L62.8894 20.6231L60.8733 43.2491H42.5V35.0386Z" fill="white"/>
<path d="M42.5504 56.3603L42.5132 56.3709L33.3704 53.9006L32.786 47.353H24.5437L25.6939 60.2437L42.5106 64.9134L42.5504 64.9028V56.3603Z" fill="#EBEBEB"/>
<path d="M52.6655 42.9011L51.6773 53.8953L42.5212 56.3656V64.9081L59.3512 60.2438L59.4761 58.8572L60.9025 42.9011H52.6655Z" fill="white"/>
<path d="M42.5293 18.4211V26.6316H22.6977L22.533 24.7855L22.1585 20.6231L21.9619 18.4211H42.5293ZM42.5 35.0386V43.2491H33.4714L33.3068 41.403L32.9349 37.2406L32.7383 35.0386H42.5Z" fill="#EBEBEB"/>
</svg>
