<svg width="85" height="85" viewBox="0 0 85 85" fill="none" xmlns="http://www.w3.org/2000/svg">
<path d="M44.4631 5.41077C43.5524 5.41438 42.6793 5.77375 42.0299 6.41217L41.9954 6.43874L19.1782 19.627L41.9317 42.3805V42.3964L69.291 69.7558L74.5053 60.3633L55.6964 15.215L46.9307 6.44936C46.6086 6.1236 46.2252 5.86482 45.8026 5.68794C45.38 5.51105 44.9265 5.41956 44.4684 5.41874L44.4631 5.41077Z" fill="#66C3FA"/>
<path d="M19.2578 19.5234L6.0775 42.3167L6.05094 42.3512C5.41153 43.0034 5.05138 43.879 5.04688 44.7923C5.04738 45.2491 5.1385 45.7012 5.31495 46.1225C5.4914 46.5438 5.74969 46.9259 6.07484 47.2467L17 58.1719L59.7231 74.978L69.3813 69.6123L69.1156 69.3467H69.0492L42.2663 42.5186H42.2344L19.2578 19.5234Z" fill="#215896"/>
<path d="M19.1038 19.5553L42.3831 42.8586H42.4177L69.2113 69.6867L79.4086 67.7423L79.4219 37.5594L68.6535 27.0061C65.9685 24.61 62.6039 23.1097 59.0272 22.7136V22.5967L19.1038 19.5553Z" fill="#235997"/>
<path d="M19.2737 19.6855L42.5637 42.9755V43.01L69.3706 69.8169L67.4209 80.0142H37.2459L26.6979 69.2405C24.3034 66.554 22.805 63.1886 22.4107 59.6115H22.2938L19.2737 19.6855Z" fill="#58B6F0"/>
</svg>
