<svg width="85" height="85" viewBox="0 0 85 85" fill="none" xmlns="http://www.w3.org/2000/svg">
<g clip-path="url(#clip0_153_1836)">
<path d="M30.2148 85.6641C38.1172 85.6641 44.4922 79.2891 44.4922 71.3867V57.1094H30.2148C22.3125 57.1094 15.9375 63.4844 15.9375 71.3867C15.9375 79.2891 22.3125 85.6641 30.2148 85.6641Z" fill="#0ACF83"/>
<path d="M15.9375 42.832C15.9375 34.9297 22.3125 28.5547 30.2148 28.5547H44.4922V57.1094H30.2148C22.3125 57.1094 15.9375 50.7344 15.9375 42.832Z" fill="#A259FF"/>
<path d="M15.9375 14.2773C15.9375 6.375 22.3125 0 30.2148 0H44.4922V28.5547H30.2148C22.3125 28.5547 15.9375 22.1797 15.9375 14.2773Z" fill="#F24E1E"/>
<path d="M44.4922 0H58.7695C66.6719 0 73.0469 6.375 73.0469 14.2773C73.0469 22.1797 66.6719 28.5547 58.7695 28.5547H44.4922V0Z" fill="#FF7262"/>
<path d="M73.0469 42.832C73.0469 50.7344 66.6719 57.1094 58.7695 57.1094C50.8672 57.1094 44.4922 50.7344 44.4922 42.832C44.4922 34.9297 50.8672 28.5547 58.7695 28.5547C66.6719 28.5547 73.0469 34.9297 73.0469 42.832Z" fill="#1ABCFE"/>
</g>
<defs>
<clipPath id="clip0_153_1836">
<rect width="85" height="85" fill="white"/>
</clipPath>
</defs>
</svg>
