<svg width="85" height="85" viewBox="0 0 85 85" fill="none" xmlns="http://www.w3.org/2000/svg">
<path d="M15.4062 65.3438L15.8578 64.7142L37.1609 24.302L37.2061 23.8744L27.8162 6.23688C27.6443 5.91435 27.3754 5.65403 27.0474 5.49277C26.7194 5.3315 26.349 5.27744 25.9887 5.33824C25.6283 5.39904 25.2961 5.57162 25.0392 5.83156C24.7823 6.0915 24.6136 6.42565 24.557 6.78672L15.4062 65.3438Z" fill="#FFC24A"/>
<path d="M15.6719 64.8656L16.0119 64.2016L37.0945 24.2091L27.7286 6.5025C27.5741 6.19457 27.3241 5.94497 27.0158 5.7911C26.7076 5.63723 26.3578 5.58737 26.0189 5.649C25.68 5.71063 25.3701 5.88041 25.1358 6.13293C24.9014 6.38545 24.7552 6.70709 24.7191 7.04969L15.6719 64.8656Z" fill="#FFA712"/>
<path d="M44.0512 37.2141L51.0425 30.0422L44.0486 16.7052C43.8947 16.4181 43.6658 16.1782 43.3863 16.011C43.1068 15.8437 42.7872 15.7554 42.4615 15.7554C42.1358 15.7554 41.8162 15.8437 41.5367 16.011C41.2572 16.1782 41.0283 16.4181 40.8744 16.7052L37.137 23.8292V24.4375L44.0512 37.2141Z" fill="#F4BD62"/>
<path d="M43.9264 36.9219L50.7237 29.9625L43.9264 17C43.8151 16.7194 43.6251 16.477 43.3792 16.302C43.1333 16.127 42.842 16.0268 42.5404 16.0136C42.2389 16.0004 41.94 16.0748 41.6797 16.2276C41.4194 16.3805 41.2089 16.6054 41.0736 16.8752L37.3176 24.1241L37.2061 24.4933L43.9264 36.9219Z" fill="#FFA50E"/>
<path d="M15.4116 65.3464L15.6161 65.1392L16.3572 64.8391L43.6103 37.6869L43.9556 36.7466L37.1583 23.7894L15.4116 65.3464Z" fill="#F6820C"/>
<path d="M44.9225 79.0394L69.5938 65.2827L62.5441 21.9034C62.4935 21.5976 62.3597 21.3117 62.1573 21.0769C61.9549 20.8422 61.6917 20.6678 61.3967 20.5728C61.1017 20.4779 60.7861 20.466 60.4848 20.5386C60.1835 20.6112 59.908 20.7655 59.6886 20.9844L15.4062 65.3437L39.9314 79.0367C40.6939 79.4622 41.5525 79.6855 42.4256 79.6855C43.2988 79.6855 44.1574 79.4622 44.9198 79.0367" fill="#FDE068"/>
<path d="M69.368 65.1684L62.3767 22.1159C62.3644 21.8234 62.2655 21.5412 62.0927 21.3049C61.9199 21.0686 61.6809 20.8889 61.4059 20.7885C61.1309 20.6881 60.8323 20.6716 60.5478 20.7409C60.2634 20.8103 60.006 20.9625 59.8081 21.1783L15.6719 65.2614L39.9261 78.8083C40.6825 79.2303 41.5342 79.4518 42.4004 79.4518C43.2665 79.4518 44.1183 79.2303 44.8747 78.8083L69.368 65.1684Z" fill="#FCCA3F"/>
<path d="M44.9225 78.625C44.16 79.0505 43.3014 79.2738 42.4283 79.2738C41.5551 79.2738 40.6965 79.0505 39.9341 78.625L15.6081 65.1366L15.4062 65.3438L39.9314 79.0367C40.6939 79.4622 41.5525 79.6855 42.4256 79.6855C43.2988 79.6855 44.1574 79.4622 44.9198 79.0367L69.5938 65.2827L69.5327 64.9108L44.9225 78.625Z" fill="#EEAB37"/>
</svg>
