<svg width="85" height="85" viewBox="0 0 85 85" fill="none" xmlns="http://www.w3.org/2000/svg">
<g clip-path="url(#clip0_153_1834)">
<path d="M82.8331 38.7666L46.2326 2.16747C44.1262 0.0597364 40.7076 0.0597364 38.5979 2.16747L30.9984 9.76833L40.6392 19.4092C42.8805 18.6528 45.449 19.1602 47.2347 20.9458C49.0297 22.7428 49.533 25.3333 48.7581 27.5818L58.0496 36.874C60.2975 36.0991 62.892 36.5998 64.6863 38.3981C67.1964 40.9062 67.1964 44.9723 64.6863 47.4818C64.0898 48.0786 63.3815 48.552 62.602 48.875C61.8224 49.198 60.9869 49.3643 60.1431 49.3643C59.2993 49.3643 58.4638 49.198 57.6842 48.875C56.9047 48.552 56.1964 48.0786 55.5999 47.4818C54.7037 46.585 54.0928 45.4431 53.844 44.1999C53.5953 42.9567 53.7199 41.6677 54.2021 40.4952L45.5374 31.8305L45.536 54.6351C46.1647 54.9446 46.7387 55.3546 47.2354 55.849C49.7442 58.3571 49.7442 62.4218 47.2354 64.9353C44.7259 67.4435 40.6585 67.4435 38.1517 64.9353C35.6428 62.4225 35.6428 58.3578 38.1517 55.849C38.7527 55.2469 39.4677 54.7706 40.2548 54.4478V31.432C39.467 31.1101 38.7519 30.6334 38.1517 30.0302C36.2511 28.131 35.7936 25.3419 36.7684 23.0071L27.2637 13.5024L2.16745 38.5973C1.15496 39.6101 0.586182 40.9835 0.586182 42.4156C0.586182 43.8477 1.15496 45.2212 2.16745 46.234L38.7686 82.8331C40.8763 84.9409 44.2936 84.9409 46.4046 82.8331L82.8338 46.404C83.8461 45.3909 84.4146 44.0173 84.4145 42.5852C84.4144 41.153 83.8456 39.7795 82.8331 38.7666Z" fill="#F34F29"/>
</g>
<defs>
<clipPath id="clip0_153_1834">
<rect width="85" height="85" fill="white"/>
</clipPath>
</defs>
</svg>
