<svg width="85" height="85" viewBox="0 0 85 85" fill="none" xmlns="http://www.w3.org/2000/svg">
<path d="M15.6771 72.2527L9.7085 5.3125H75.2913L69.3147 72.242L42.4601 79.6875L15.6771 72.2527Z" fill="#E44F26"/>
<path d="M42.5 73.9978L64.2016 67.9814L69.3069 10.787H42.5V73.9978Z" fill="#F1662A"/>
<path d="M42.5 35.6123H31.6359L30.8869 27.2053H42.5V18.9948H21.9141L22.1106 21.1995L24.1267 43.8228H42.5V35.6123ZM42.5 56.9341L42.4628 56.9447L33.32 54.477L32.7356 47.9294H24.4933L25.6434 60.8175L42.4628 65.4872L42.5 65.4766V56.9341Z" fill="#EBEBEB"/>
<path d="M42.4707 35.6123V43.8228H52.5804L51.6295 54.4717L42.4707 56.942V65.4845L59.3034 60.8175L59.4255 59.4309L61.354 37.817L61.5559 35.6123H59.3432H42.4707ZM42.4707 18.9948V27.2053H62.3023L62.467 25.3619L62.8415 21.1995L63.038 18.9948H42.4707Z" fill="white"/>
</svg>
