<svg width="85" height="85" viewBox="0 0 85 85" fill="none" xmlns="http://www.w3.org/2000/svg">
<path d="M5.3125 5.3125H79.6875V79.6875H5.3125V5.3125Z" fill="#F5DE19"/>
<path d="M55.2738 63.418C55.9075 64.7052 56.8921 65.7871 58.114 66.5391C59.3359 67.291 60.7454 67.6823 62.1801 67.668C65.0754 67.668 66.9268 66.2203 66.9268 64.2148C66.9268 61.8242 65.0249 60.9689 61.8374 59.5744L60.0896 58.8253C55.0427 56.6764 51.6959 53.9856 51.6959 48.2959C51.6959 43.0552 55.6802 39.0628 61.9304 39.0628C63.9537 38.9167 65.9752 39.3695 67.7428 40.3648C69.5104 41.3601 70.9458 42.8538 71.8701 44.6595L66.4062 48.1525C66.0503 47.2571 65.4306 46.4911 64.6294 45.956C63.8281 45.4209 62.8832 45.142 61.9198 45.1563C61.4994 45.1142 61.075 45.1601 60.6734 45.2912C60.2718 45.4222 59.9019 45.6354 59.5873 45.9173C59.2727 46.1992 59.0202 46.5435 58.846 46.9284C58.6718 47.3132 58.5797 47.7301 58.5755 48.1525C58.5755 50.2483 59.8744 51.0983 62.8734 52.4025L64.6212 53.1516C70.5605 55.6989 73.918 58.2941 73.918 64.1298C73.918 70.4225 68.9748 73.8703 62.3368 73.8703C59.7504 74.0351 57.1716 73.4479 54.9116 72.1795C52.6515 70.9112 50.8068 69.0159 49.6001 66.7223L55.2738 63.418ZM30.584 64.0236C31.681 65.9706 32.6798 67.6175 35.081 67.6175C37.376 67.6175 38.8263 66.7197 38.8263 63.2267V39.4613H45.8149V63.3197C45.8149 70.5553 41.5649 73.8491 35.3785 73.8491C33.1918 73.9686 31.02 73.4236 29.1488 72.2858C27.2775 71.148 25.7944 69.4706 24.8943 67.4741L30.584 64.0236Z" fill="black"/>
</svg>
