<svg width="85" height="85" viewBox="0 0 85 85" fill="none" xmlns="http://www.w3.org/2000/svg">
<path d="M31.6206 65.1578C31.6206 65.1578 28.455 66.9999 33.8764 67.6215C40.4453 68.3719 43.8021 68.2643 51.0391 66.8963C51.0391 66.8963 52.9456 68.0883 55.6032 69.1216C39.3742 76.0743 18.8752 68.7185 31.6206 65.1578ZM29.6363 56.0834C29.6363 56.0834 26.0849 58.7124 31.511 59.2742C38.5281 59.9987 44.0684 60.0578 53.6601 58.2117C53.6601 58.2117 54.9836 59.5565 57.0681 60.2909C37.4504 66.0284 15.6 60.7425 29.6363 56.0834Z" fill="#0074BD"/>
<path d="M46.353 40.6878C50.354 45.2931 45.3038 49.4335 45.3038 49.4335C45.3038 49.4335 55.4566 44.1934 50.7949 37.6284C46.4393 31.5091 43.1004 28.4697 61.1775 17.9855C61.1775 17.9861 32.8015 25.071 46.353 40.6878Z" fill="#EA2D2E"/>
<path d="M67.8162 71.8708C67.8162 71.8708 70.1596 73.8032 65.2343 75.2967C55.8697 78.1336 26.2498 78.9889 18.0234 75.4103C15.0677 74.1233 20.6126 72.339 22.3571 71.9625C24.176 71.5687 25.2146 71.6404 25.2146 71.6404C21.9255 69.3248 3.95593 76.1892 16.0884 78.1582C49.1726 83.5211 76.3965 75.743 67.8162 71.8708ZM33.1448 46.6796C33.1448 46.6796 18.0799 50.2582 27.8104 51.5591C31.9196 52.109 40.1075 51.9828 47.7396 51.3427C53.9751 50.8187 60.2326 49.6998 60.2326 49.6998C60.2326 49.6998 58.0359 50.6421 56.4448 51.7272C41.1434 55.752 11.5913 53.8774 20.1 49.7629C27.2931 46.2838 33.1448 46.6796 33.1448 46.6796ZM60.1702 61.785C75.7232 53.7054 68.5314 45.9405 63.5117 46.9864C62.2845 47.2421 61.734 47.4645 61.734 47.4645C61.734 47.4645 62.1909 46.748 63.0621 46.4399C72.9919 42.9502 80.6273 56.7348 59.8594 62.1948C59.8594 62.1934 60.0978 61.9776 60.1702 61.785Z" fill="#0074BD"/>
<path d="M50.7949 1.05386C50.7949 1.05386 59.4064 9.67074 42.6249 22.9168C29.167 33.5458 39.5563 39.6047 42.6203 46.5302C34.7637 39.4427 29.001 33.2025 32.8665 27.3952C38.5429 18.8727 54.2686 14.7389 50.7949 1.05386Z" fill="#EA2D2E"/>
<path d="M34.6733 83.6858C49.5988 84.6401 72.5249 83.1546 73.0674 76.0916C73.0674 76.0916 72.0242 78.7691 60.7311 80.8935C47.9904 83.292 32.2734 83.0125 22.9546 81.4738C22.9546 81.4745 24.8638 83.055 34.6733 83.6858Z" fill="#0074BD"/>
</svg>
