<svg width="85" height="85" viewBox="0 0 85 85" fill="none" xmlns="http://www.w3.org/2000/svg">
<path d="M74.887 20.1437L45.6038 3.14035C43.7571 2.08848 41.3525 2.08848 39.4911 3.14035L9.8952 20.1437C7.98934 21.24 6.64062 23.3006 6.64062 25.5047V59.4661C6.64062 61.6702 8.02453 63.7314 9.93039 64.8338L17.7497 69.275C21.4871 71.1158 22.8079 71.1158 24.5086 71.1158C30.0422 71.1158 33.2031 67.7696 33.2031 61.9331V28.4046C33.2031 27.9311 32.9568 27.2266 32.4919 27.2266H28.7579C28.2851 27.2266 27.2266 27.9311 27.2266 28.4039V61.9325C27.2266 64.5197 24.8864 67.0942 20.5129 64.9075L12.4332 60.2504C12.1517 60.0977 11.9531 59.7902 11.9531 59.4661V25.5047C11.9531 25.1846 12.3217 24.8632 12.6052 24.6991L42.1055 7.72504C42.3811 7.56899 42.7862 7.56899 43.0611 7.72504L72.2015 24.6952C72.4804 24.8632 72.3821 25.1746 72.3821 25.5047V59.4661C72.3821 59.7902 72.5037 60.1056 72.2281 60.2617L42.9522 77.2457C42.7012 77.3965 42.3898 77.3965 42.1148 77.2457L34.6063 72.764C34.3798 72.6325 34.1109 72.5854 33.8938 72.7069C31.8046 73.8909 31.4195 74.0483 29.4598 74.7276C28.9777 74.8956 28.2665 75.1872 29.7321 76.0086L39.5589 81.8218C40.497 82.3637 41.5613 82.6491 42.6448 82.6492C43.7352 82.6492 44.803 82.3663 45.7439 81.8218L74.8863 64.8338C76.7922 63.7234 77.6953 61.6702 77.6953 59.4661V25.5047C77.6953 23.3006 76.7922 21.2454 74.887 20.1437ZM51.7371 54.0846C43.9503 54.0846 42.235 51.9363 41.6633 48.0642C41.5969 47.6471 41.2429 47.1484 40.8186 47.1484H37.0129C36.542 47.1484 36.1635 47.7195 36.1635 48.1884C36.1635 53.1463 38.8589 59.1534 51.7378 59.1534C61.0605 59.1534 66.4056 55.5309 66.4056 49.12C66.4056 42.7636 62.1111 41.0955 53.0699 39.8989C43.9311 38.6909 43.0027 38.0807 43.0027 35.9397C43.0027 34.1746 43.7889 31.8205 50.5557 31.8205C56.602 31.8205 58.8306 33.1181 59.7477 37.1935C59.8261 37.5766 60.176 37.8516 60.5711 37.8516H64.3922C64.6272 37.8516 64.8517 37.7566 65.0164 37.5886C65.1757 37.408 65.2601 37.1815 65.2388 36.9385C64.6471 29.9207 59.9848 26.6502 50.5551 26.6502C42.1673 26.6502 37.1636 30.1923 37.1636 36.1297C37.1636 42.5697 42.1421 44.3494 50.1938 45.1456C59.8261 46.0899 60.5751 47.4977 60.5751 49.3923C60.5751 52.6827 57.9335 54.0846 51.7371 54.0846Z" fill="#83CD29"/>
</svg>
