<svg width="85" height="85" viewBox="0 0 85 85" fill="none" xmlns="http://www.w3.org/2000/svg">
<path d="M42.1945 5.57814C23.3352 5.57814 24.5278 13.7328 24.5278 13.7328V22.2063H42.4628V24.8625H17.3852C17.3852 24.8625 5.3125 23.375 5.3125 42.5133C5.3125 61.6516 15.972 60.8733 15.972 60.8733H22.1266V51.9456C22.1266 51.9456 21.7812 41.2861 32.4859 41.2861H50.4475C50.4475 41.2861 60.4669 41.4455 60.4669 31.5855V15.4063C60.4669 15.4063 61.9862 5.54626 42.2928 5.54626L42.1945 5.57814ZM32.2814 11.2545C32.919 11.2385 33.5471 11.4118 34.0861 11.7527C34.6252 12.0936 35.0511 12.5866 35.31 13.1696C35.5688 13.7525 35.6489 14.3991 35.5403 15.0276C35.4316 15.6561 35.139 16.2382 34.6995 16.7004C34.26 17.1626 33.6933 17.4841 33.071 17.6241C32.4488 17.7642 31.799 17.7167 31.2038 17.4874C30.6086 17.2582 30.0948 16.8576 29.7272 16.3364C29.3597 15.8151 29.155 15.1965 29.1391 14.5589V14.5058C29.1391 13.6506 29.4788 12.8303 30.0836 12.2256C30.6883 11.6209 31.5085 11.2811 32.3638 11.2811L32.2814 11.2545Z" fill="url(#paint0_linear_153_1717)"/>
<path d="M42.7258 79.4484C61.5852 79.4484 60.3926 71.2672 60.3926 71.2672V62.8203H42.4602V60.1641H67.6149C67.6149 60.1641 79.6875 61.5135 79.6875 42.4867C79.6875 23.46 69.028 24.1267 69.028 24.1267H62.7938V32.9375C62.7938 32.9375 63.1391 43.597 52.4344 43.597H34.4649C34.4649 43.597 24.4376 43.4456 24.4376 53.3056V69.5938C24.4376 69.5938 22.9182 79.4538 42.6116 79.4538H42.7179L42.7258 79.4484ZM52.639 73.7455C52.0014 73.7616 51.3733 73.5882 50.8342 73.2473C50.2951 72.9065 49.8692 72.4134 49.6104 71.8305C49.3516 71.2475 49.2714 70.6009 49.3801 69.9725C49.4887 69.344 49.7813 68.7618 50.2209 68.2996C50.6604 67.8374 51.2271 67.516 51.8493 67.3759C52.4716 67.2358 53.1214 67.2834 53.7166 67.5126C54.3118 67.7418 54.8256 68.1424 55.1931 68.6637C55.5607 69.1849 55.7653 69.8035 55.7813 70.4411V70.5208C55.7813 71.376 55.4416 72.1962 54.8368 72.801C54.2321 73.4057 53.4119 73.7455 52.5566 73.7455H52.639Z" fill="url(#paint1_linear_153_1717)"/>
<defs>
<linearGradient id="paint0_linear_153_1717" x1="12.6628" y1="12.8108" x2="47.9555" y2="48.0236" gradientUnits="userSpaceOnUse">
<stop stop-color="#387EB8"/>
<stop offset="1" stop-color="#366994"/>
</linearGradient>
<linearGradient id="paint1_linear_153_1717" x1="33.5418" y1="35.7493" x2="73.8642" y2="70.9515" gradientUnits="userSpaceOnUse">
<stop stop-color="#FFE052"/>
<stop offset="1" stop-color="#FFC331"/>
</linearGradient>
</defs>
</svg>
