<svg width="85" height="85" viewBox="0 0 85 85" fill="none" xmlns="http://www.w3.org/2000/svg">
<path d="M77.0578 13.361L61.7418 5.98721C60.8769 5.57017 59.9037 5.43255 58.957 5.59342C58.0103 5.75429 57.1372 6.20568 56.4586 6.88502L6.32184 52.5938C5.71354 53.1457 5.34941 53.9167 5.30956 54.7372C5.26971 55.5576 5.5574 56.3603 6.10934 56.9686C6.17575 57.0403 6.24216 57.1094 6.31388 57.1731L10.4072 60.8919C10.942 61.3787 11.6305 61.6628 12.353 61.6948C13.0756 61.7268 13.7865 61.5048 14.3623 61.0672L74.7522 15.2735C75.2083 14.9273 75.752 14.7154 76.3221 14.6615C76.8921 14.6076 77.4659 14.7139 77.9788 14.9684C78.4917 15.223 78.9234 15.6156 79.2253 16.1022C79.5272 16.5888 79.6872 17.1499 79.6875 17.7225V17.5446C79.6874 16.6704 79.4406 15.814 78.9754 15.0739C78.5102 14.3338 77.8455 13.74 77.0578 13.361Z" fill="#0065A9"/>
<path d="M77.0578 71.6391L61.7418 79.0155C60.8766 79.4313 59.9037 79.5683 58.9573 79.4075C58.0109 79.2467 57.1378 78.796 56.4586 78.1177L6.32184 32.4063C5.71354 31.8543 5.34941 31.0833 5.30956 30.2629C5.26971 29.4424 5.5574 28.6398 6.10934 28.0314C6.17575 27.9597 6.24216 27.8906 6.31388 27.8269L10.4072 24.1081C10.9426 23.6193 11.6326 23.334 12.3569 23.3019C13.0812 23.2699 13.7938 23.4932 14.3703 23.9328L74.7522 69.7266C75.2083 70.0727 75.752 70.2846 76.3221 70.3385C76.8921 70.3924 77.4659 70.2861 77.9788 70.0316C78.4917 69.7771 78.9234 69.3844 79.2253 68.8979C79.5272 68.4113 79.6872 67.8501 79.6875 67.2775V67.4688C79.6846 68.3406 79.4365 69.1941 78.9715 69.9315C78.5064 70.669 77.8433 71.2607 77.0578 71.6391Z" fill="#007ACC"/>
<path d="M61.7419 79.0154C60.8767 79.4313 59.9037 79.5683 58.9574 79.4075C58.011 79.2466 57.1379 78.7959 56.4586 78.1176C56.8401 78.4941 57.3242 78.7496 57.8502 78.8522C58.3762 78.9547 58.9208 78.8997 59.4158 78.6941C59.9107 78.4885 60.3339 78.1414 60.6324 77.6962C60.9309 77.2511 61.0914 76.7278 61.0938 76.1918V8.8081C61.0942 8.26964 60.9348 7.74317 60.6358 7.29538C60.3368 6.84758 59.9116 6.49861 59.4141 6.29266C58.9166 6.08672 58.3692 6.03307 57.8411 6.13851C57.3131 6.24395 56.8283 6.50374 56.448 6.88497C57.1267 6.20588 57.9997 5.75446 58.9462 5.59314C59.8927 5.43182 60.8659 5.56858 61.7313 5.9845L77.0446 13.3476C77.8347 13.7248 78.5022 14.3177 78.9698 15.058C79.4375 15.7982 79.6863 16.6556 79.6875 17.5312V67.4687C79.6877 68.3436 79.4408 69.2008 78.975 69.9414C78.5093 70.6821 77.8438 71.2761 77.0552 71.655L61.7419 79.0154Z" fill="#1F9CF0"/>
</svg>
