<svg width="85" height="85" viewBox="0 0 85 85" fill="none" xmlns="http://www.w3.org/2000/svg">
<g clip-path="url(#clip0_153_1846)">
<mask id="mask0_153_1846" style="mask-type:alpha" maskUnits="userSpaceOnUse" x="-1" y="0" width="86" height="85">
<path fill-rule="evenodd" clip-rule="evenodd" d="M60.275 84.4196C60.9513 84.6833 61.6748 84.805 62.4002 84.7772C63.1256 84.7493 63.8376 84.5724 64.4918 84.2576L81.9918 75.8366C82.893 75.4028 83.6535 74.7233 84.1856 73.8764C84.7178 73.0295 85.0001 72.0496 85 71.0494V13.9513C85.0002 12.951 84.718 11.9709 84.1858 11.1239C83.6536 10.2769 82.8931 9.59729 81.9918 9.1634L64.4918 0.743753C63.5029 0.267956 62.3906 0.111301 61.3088 0.295469C60.227 0.479638 59.2292 0.995521 58.4534 1.77172L24.9515 32.3359L10.3594 21.2586C9.70112 20.7588 8.88867 20.5053 8.06298 20.5419C7.2373 20.5785 6.4505 20.9031 5.8391 21.4592L1.15878 25.7165C0.794046 26.0482 0.502565 26.4524 0.302988 26.9033C0.103411 27.3541 0.00013191 27.8416 -0.000243116 28.3347C-0.000618141 28.8277 0.101919 29.3154 0.30081 29.7665C0.499701 30.2177 0.790566 30.6223 1.1548 30.9546L13.8098 42.5L1.15546 54.0461C0.791429 54.3784 0.500738 54.783 0.301971 55.2341C0.103203 55.6852 0.000732207 56.1727 0.00110719 56.6657C0.00148218 57.1586 0.104695 57.646 0.304148 58.0968C0.503602 58.5475 0.794908 58.9517 1.15945 59.2835L5.83976 63.5408C6.45102 64.0972 7.2378 64.4219 8.06352 64.4586C8.88924 64.4954 9.70176 64.2419 10.36 63.742L24.9521 52.6655L58.4541 83.229C58.9721 83.7479 59.5918 84.1534 60.275 84.4196ZM63.7626 23.2043L38.343 42.5L63.7633 61.7963L63.7626 23.2043Z" fill="white"/>
</mask>
<g mask="url(#mask0_153_1846)">
<path d="M81.9924 9.17737L64.4784 0.743773C63.4891 0.267661 62.3764 0.110836 61.2941 0.295006C60.2118 0.479175 59.2135 0.995231 58.4374 1.77174L1.10356 54.0461C0.739258 54.3783 0.448322 54.7828 0.249378 55.2339C0.0504351 55.685 -0.0521318 56.1727 -0.0517568 56.6657C-0.0513817 57.1587 0.051927 57.6462 0.251556 58.097C0.451186 58.5478 0.742738 58.9519 1.10755 59.2835L5.79052 63.5408C6.40233 64.0972 7.18953 64.4218 8.01563 64.4586C8.84173 64.4953 9.65465 64.2418 10.3134 63.7421L79.3567 11.3641C81.6729 9.60702 84.9999 11.2592 84.9999 14.1665V13.9633C84.9998 12.9632 84.7176 11.9835 84.1855 11.1368C83.6535 10.2901 82.8933 9.61132 81.9924 9.17737Z" fill="#0065A9"/>
<g filter="url(#filter0_d_153_1846)">
<path d="M81.9924 75.8233L64.4784 84.2556C63.4893 84.7319 62.3766 84.8889 61.2943 84.705C60.212 84.5211 59.2136 84.0053 58.4374 83.229L1.10356 30.954C0.739258 30.6218 0.448322 30.2172 0.249378 29.7661C0.0504351 29.315 -0.0521318 28.8274 -0.0517568 28.3344C-0.0513817 27.8413 0.051927 27.3538 0.251556 26.9031C0.451186 26.4523 0.742738 26.0481 1.10755 25.7165L5.79052 21.4592C6.40233 20.9029 7.18953 20.5782 8.01563 20.5415C8.84173 20.5047 9.65465 20.7582 10.3134 21.258L79.3567 73.6353C81.6729 75.393 84.9999 73.7408 84.9999 70.8336V71.0368C84.9998 72.0368 84.7176 73.0165 84.1855 73.8632C83.6535 74.71 82.8933 75.3894 81.9924 75.8233Z" fill="#007ACC"/>
</g>
<g filter="url(#filter1_d_153_1846)">
<path d="M64.4791 84.2576C63.4897 84.7334 62.3768 84.89 61.2945 84.7057C60.2121 84.5214 59.2138 84.0054 58.4375 83.229C60.3978 85.1893 63.75 83.8007 63.75 81.0282V3.9711C63.75 1.19864 60.3978 -0.189918 58.4375 1.77106C59.2138 0.994638 60.2121 0.478606 61.2945 0.294329C62.3768 0.110052 63.4897 0.266636 64.4791 0.742425L81.9898 9.16407C82.8915 9.59768 83.6524 10.2771 84.185 11.1242C84.7175 11.9712 85 12.9514 85 13.952V71.0494C85 72.0499 84.7175 73.0301 84.185 73.8772C83.6524 74.7242 82.8915 75.4037 81.9898 75.8373L64.4791 84.2576Z" fill="#1F9CF0"/>
</g>
<path opacity="0.25" fill-rule="evenodd" clip-rule="evenodd" d="M60.2238 84.4196C60.9001 84.6832 61.6234 84.8049 62.3487 84.777C63.074 84.7491 63.7859 84.5723 64.4399 84.2576L81.94 75.8366C82.8413 75.4027 83.6018 74.7232 84.134 73.8761C84.6662 73.0291 84.9484 72.049 84.9482 71.0487V13.9513C84.9484 12.951 84.6662 11.9709 84.134 11.1239C83.6018 10.2769 82.8413 9.59729 81.94 9.1634L64.4399 0.743753C63.4511 0.267956 62.3387 0.111301 61.2569 0.295469C60.1751 0.479638 59.1773 0.995521 58.4016 1.77172L24.8996 32.3359L10.3075 21.2593C9.64928 20.7595 8.83683 20.5059 8.01115 20.5426C7.18547 20.5792 6.39867 20.9037 5.78726 21.4598L1.10695 25.7172C0.742301 26.0489 0.450902 26.4532 0.251384 26.904C0.0518657 27.3548 -0.0513818 27.8423 -0.0517568 28.3353C-0.0521318 28.8283 0.0503739 29.316 0.249206 29.7671C0.448038 30.2183 0.738822 30.6229 1.10296 30.9553L13.758 42.5L1.10363 54.0454C0.739395 54.3777 0.44853 54.7823 0.249639 55.2335C0.0507479 55.6846 -0.0517897 56.1723 -0.0514147 56.6653C-0.0510396 57.1584 0.0522398 57.6459 0.251817 58.0967C0.451394 58.5476 0.742874 58.9518 1.10761 59.2835L5.78792 63.5408C6.39925 64.097 7.18601 64.4217 8.01169 64.4585C8.83737 64.4952 9.64987 64.2417 10.3082 63.742L24.901 52.6648L58.4029 83.229C58.9207 83.7478 59.5408 84.1533 60.2238 84.4196ZM63.7114 23.2037L38.2911 42.5L63.7114 61.7957V23.2037Z" fill="url(#paint0_linear_153_1846)"/>
</g>
</g>
<defs>
<filter id="filter0_d_153_1846" x="-8.38576" y="12.204" width="101.72" height="80.9099" filterUnits="userSpaceOnUse" color-interpolation-filters="sRGB">
<feFlood flood-opacity="0" result="BackgroundImageFix"/>
<feColorMatrix in="SourceAlpha" type="matrix" values="0 0 0 0 0 0 0 0 0 0 0 0 0 0 0 0 0 0 127 0" result="hardAlpha"/>
<feOffset/>
<feGaussianBlur stdDeviation="4.167"/>
<feColorMatrix type="matrix" values="0 0 0 0 0 0 0 0 0 0 0 0 0 0 0 0 0 0 0.25 0"/>
<feBlend mode="overlay" in2="BackgroundImageFix" result="effect1_dropShadow_153_1846"/>
<feBlend mode="normal" in="SourceGraphic" in2="effect1_dropShadow_153_1846" result="shape"/>
</filter>
<filter id="filter1_d_153_1846" x="50.1035" y="-8.11482" width="43.2305" height="101.23" filterUnits="userSpaceOnUse" color-interpolation-filters="sRGB">
<feFlood flood-opacity="0" result="BackgroundImageFix"/>
<feColorMatrix in="SourceAlpha" type="matrix" values="0 0 0 0 0 0 0 0 0 0 0 0 0 0 0 0 0 0 127 0" result="hardAlpha"/>
<feOffset/>
<feGaussianBlur stdDeviation="4.167"/>
<feColorMatrix type="matrix" values="0 0 0 0 0 0 0 0 0 0 0 0 0 0 0 0 0 0 0.25 0"/>
<feBlend mode="overlay" in2="BackgroundImageFix" result="effect1_dropShadow_153_1846"/>
<feBlend mode="normal" in="SourceGraphic" in2="effect1_dropShadow_153_1846" result="shape"/>
</filter>
<linearGradient id="paint0_linear_153_1846" x1="42.4482" y1="0.219144" x2="42.4482" y2="84.7809" gradientUnits="userSpaceOnUse">
<stop stop-color="white"/>
<stop offset="1" stop-color="white" stop-opacity="0"/>
</linearGradient>
<clipPath id="clip0_153_1846">
<rect width="85" height="85" fill="white"/>
</clipPath>
</defs>
</svg>
