<svg width="85" height="85" viewBox="0 0 85 85" fill="none" xmlns="http://www.w3.org/2000/svg">
<path d="M23.707 9.16406H61.2266C69.2617 9.16406 75.7695 15.6719 75.7695 23.707V61.2266C75.7695 69.2617 69.2617 75.7695 61.2266 75.7695H23.707C15.6719 75.7695 9.16406 69.2617 9.16406 61.2266V23.707C9.16406 15.6719 15.6719 9.16406 23.707 9.16406Z" fill="url(#paint0_linear_153_1766)"/>
<path d="M60.0977 12.75H24.8359C18.1289 12.75 12.6836 18.1953 12.6836 24.9023V60.1641C12.6836 66.8711 18.1289 72.3164 24.8359 72.3164H60.0977C66.8047 72.3164 72.25 66.8711 72.25 60.1641V24.8359C72.25 18.1289 66.8047 12.75 60.0977 12.75ZM71.2539 60.2969C71.2539 66.4063 66.3398 71.3203 60.2305 71.3203H24.7031C18.6602 71.3203 13.6797 66.4063 13.6797 60.2969V24.7031C13.6797 18.5938 18.5938 13.6797 24.7031 13.6797H60.2969C66.3398 13.6797 71.3203 18.5938 71.3203 24.7031V60.2969H71.2539Z" fill="white"/>
<path d="M42.5664 15.1406C27.5586 15.1406 15.3398 27.3594 15.3398 42.3672C15.3398 57.375 27.5586 69.5938 42.5664 69.5938C57.6406 69.5938 69.793 57.375 69.793 42.3672C69.793 27.3594 57.5742 15.1406 42.5664 15.1406ZM42.5664 69.1953C27.7578 69.1953 15.7383 57.1758 15.7383 42.3672C15.7383 27.5586 27.7578 15.5391 42.5664 15.5391C57.375 15.5391 69.3945 27.5586 69.3945 42.3672C69.3945 57.1758 57.375 69.1953 42.5664 69.1953Z" fill="#69C5F3"/>
<path d="M42.5664 20.7188C30.5469 20.7188 20.8516 30.4141 20.8516 42.4336C20.8516 54.4531 30.5469 64.082 42.5664 64.082C54.5859 64.082 64.2812 54.3867 64.2812 42.3672C64.2812 30.3477 54.5195 20.7188 42.5664 20.7188ZM42.5664 63.6172C30.8125 63.6172 21.3164 54.1211 21.3164 42.3672C21.3164 30.6133 30.8125 21.1172 42.5664 21.1172C54.3203 21.1172 63.8164 30.6133 63.8164 42.3672C63.8164 54.1211 54.2539 63.6172 42.5664 63.6172Z" fill="#68C5F4"/>
<path d="M21.7813 47.3477H63.2188C64.9454 47.3477 66.2735 48.7422 66.2735 50.4023C66.2735 52.1289 64.879 53.457 63.2188 53.457H21.7813C20.0548 53.457 18.7266 52.0625 18.7266 50.4023C18.6602 48.7422 20.0548 47.3477 21.7813 47.3477Z" fill="white"/>
<path d="M21.6484 47.9453H63.2187C64.5469 47.9453 65.6758 49.0078 65.6758 50.4023V50.4688C65.6758 51.7969 64.6133 52.9258 63.2187 52.9258H21.6484C20.3203 52.9258 19.1914 51.8633 19.1914 50.4688V50.3359C19.2578 49.0078 20.3203 47.9453 21.6484 47.9453Z" fill="#0A93E9"/>
<path d="M20.6523 52.6602H64.2813L64.6133 52.4609H20.3203L20.6523 52.6602Z" fill="#1694EA"/>
<path d="M19.6563 51.8633H65.2109L65.3438 51.6641H19.5234L19.6563 51.8633Z" fill="#319DEC"/>
<path d="M19.2578 50.6016H65.6758V50.3359H19.2578V50.6016Z" fill="#65B1EE"/>
<path d="M19.7227 48.9414H65.2773L65.3438 49.0742L65.4102 49.207H19.5898L19.6563 49.0742L19.7227 48.9414Z" fill="#8EC6F3"/>
<path d="M20.7188 48.1445H64.2813L64.4805 48.2109L64.6797 48.3438H20.3203L20.5195 48.2109L20.7188 48.1445Z" fill="#95CAF3"/>
<path d="M62.0234 47.9453H61.6914C61.6914 47.9453 62.8203 48.7422 62.8203 50.5352C62.8203 52.1953 61.6914 52.9258 61.6914 52.9258H62.0234C62.0234 52.9258 63.1523 52.3945 63.1523 50.5352C63.1523 48.543 62.0234 47.9453 62.0234 47.9453Z" fill="url(#paint1_linear_153_1766)"/>
<path d="M58.8359 47.9453H58.5039C58.5039 47.9453 59.5 48.875 59.5 50.5352C59.5 51.9961 58.5039 52.9258 58.5039 52.9258H58.8359C58.8359 52.9258 59.832 52.1953 59.832 50.5352C59.7656 48.7422 58.8359 47.9453 58.8359 47.9453Z" fill="url(#paint2_linear_153_1766)"/>
<path d="M42.3008 47.9453H42.6328V52.9258H42.3008V47.9453Z" fill="url(#paint3_linear_153_1766)"/>
<path d="M39.0469 47.9453H39.3789C39.3789 47.9453 39.2461 49.207 39.2461 50.5352C39.2461 51.7305 39.3789 52.9258 39.3789 52.9258H39.0469C39.0469 52.9258 38.9141 51.7305 38.9141 50.5352C38.9141 49.207 39.0469 47.9453 39.0469 47.9453Z" fill="url(#paint4_linear_153_1766)"/>
<path d="M35.8594 47.9453H36.1914C36.1914 47.9453 35.8594 49.207 35.8594 50.5352C35.8594 51.7305 36.1914 52.9258 36.1914 52.9258H35.8594C35.8594 52.9258 35.5273 51.7305 35.5273 50.5352C35.5273 49.207 35.8594 47.9453 35.8594 47.9453Z" fill="url(#paint5_linear_153_1766)"/>
<path d="M32.6055 47.9453H32.9375C32.9375 47.9453 32.4727 49.207 32.4727 50.5352C32.4727 51.7305 32.9375 52.9258 32.9375 52.9258H32.6055C32.6055 52.9258 32.1406 51.7305 32.1406 50.5352C32.1406 49.207 32.6055 47.9453 32.6055 47.9453Z" fill="url(#paint6_linear_153_1766)"/>
<path d="M29.3516 47.9453H29.6836C29.6836 47.9453 29.0195 49.0078 29.0195 50.5352C29.0195 51.8633 29.6836 52.9258 29.6836 52.9258H29.3516C29.3516 52.9258 28.6875 51.8633 28.6875 50.5352C28.6875 49.0078 29.3516 47.9453 29.3516 47.9453Z" fill="url(#paint7_linear_153_1766)"/>
<path d="M26.0977 47.9453H26.4297C26.4297 47.9453 25.4336 48.875 25.4336 50.5352C25.4336 51.9961 26.4297 52.9258 26.4297 52.9258H26.0977C26.0977 52.9258 25.1016 52.1953 25.1016 50.5352C25.168 48.7422 26.0977 47.9453 26.0977 47.9453Z" fill="url(#paint8_linear_153_1766)"/>
<path d="M22.9102 47.9453H23.2422C23.2422 47.9453 22.1133 48.7422 22.1133 50.5352C22.1133 52.1953 23.2422 52.9258 23.2422 52.9258H22.9102C22.9102 52.9258 21.7812 52.3945 21.7812 50.5352C21.7812 48.543 22.9102 47.9453 22.9102 47.9453Z" fill="url(#paint9_linear_153_1766)"/>
<path d="M41.1719 22.6445L61.8906 58.5039C62.7539 59.9649 62.2227 61.8242 60.7617 62.6875C59.3008 63.5508 57.4414 63.0195 56.5781 61.5586L35.8594 25.6992C34.9961 24.2383 35.5274 22.3789 36.9883 21.5156C38.4492 20.6524 40.3086 21.1836 41.1719 22.6445Z" fill="white"/>
<path d="M40.6406 22.9102L61.4258 58.9024C62.0898 60.0313 61.6914 61.5586 60.5625 62.2227L60.4297 62.2891C59.3008 62.9531 57.7734 62.5547 57.1093 61.4258L36.3242 25.3672C35.6601 24.2383 36.0586 22.711 37.1875 22.0469L37.2539 21.9805C38.4492 21.3164 39.9765 21.7149 40.6406 22.9102Z" fill="url(#paint10_linear_153_1766)"/>
<path d="M35.9922 24.3711L57.7734 62.1563L57.9062 62.2227L58.0391 62.2891L58.1719 62.3555L35.9922 23.9727V24.3711Z" fill="url(#paint11_linear_153_1766)"/>
<path d="M36.1914 23.1094L58.9688 62.5547H59.2344L36.3242 22.9102L36.2578 23.043L36.1914 23.1094Z" fill="url(#paint12_linear_153_1766)"/>
<path d="M37.1211 22.1133L60.3633 62.2891L60.5625 62.1562L37.3203 21.9805L37.1211 22.1133Z" fill="url(#paint13_linear_153_1766)"/>
<path d="M38.7812 21.7148L61.4922 61.0938L61.4258 61.2266L61.3594 61.3594L38.4492 21.6484H38.582L38.7812 21.7148Z" fill="url(#paint14_linear_153_1766)"/>
<path d="M39.9766 22.1133L61.7578 59.832V60.2305L39.5781 21.9141L39.7109 21.9805L39.8438 22.0469L39.9766 22.1133Z" fill="url(#paint15_linear_153_1766)"/>
<path d="M60.7617 57.707L60.6289 57.4414C60.6289 57.4414 60.4961 58.7695 59.0352 59.6992C57.6406 60.5625 56.3789 59.9648 56.3789 59.9648L56.5117 60.2305C56.5117 60.2305 57.5742 60.9609 59.168 59.9648C60.7617 59.0352 60.7617 57.707 60.7617 57.707ZM59.1016 54.918L58.9688 54.6523C58.9688 54.6523 58.6367 55.9805 57.2422 56.7773C55.9805 57.5742 54.7188 57.1758 54.7188 57.1758L54.8516 57.4414C54.8516 57.4414 55.9805 57.9062 57.4414 57.043C58.9023 56.1797 59.1016 54.918 59.1016 54.918Z" fill="#3C98EA"/>
<path d="M57.5078 52.1289L57.375 51.8633C57.375 51.8633 56.7773 52.9922 55.5156 53.7227C54.3867 54.3867 53.125 54.3867 53.125 54.3867L53.2578 54.6523C53.2578 54.6523 54.4531 54.6523 55.6484 53.9883C56.9102 53.2578 57.5078 52.1289 57.5078 52.1289Z" fill="#4CA4ED"/>
<path d="M55.9141 49.3398L55.7812 49.0742C55.7812 49.0742 54.918 50.2031 53.7891 50.8008C52.7266 51.3984 51.4648 51.5977 51.4648 51.5977L51.5977 51.8633C51.5977 51.8633 52.8594 51.6641 53.9219 51.0664C54.9844 50.4688 55.9141 49.3398 55.9141 49.3398Z" fill="#4DA7EE"/>
<path d="M49.3398 38.0508L49.4727 38.3164C49.4727 38.3164 48.3437 38.8477 47.2148 39.4453C46.1523 40.043 45.2227 40.8398 45.2227 40.8398L45.0898 40.5742C45.0898 40.5742 46.0859 39.7773 47.082 39.1797C48.2109 38.582 49.3398 38.0508 49.3398 38.0508Z" fill="url(#paint16_linear_153_1766)"/>
<path d="M47.7461 35.2617L47.8789 35.5273C47.8789 35.5273 46.6172 35.9258 45.5547 36.5898C44.4922 37.1875 43.6289 38.1172 43.6289 38.1172L43.4961 37.8516C43.4961 37.8516 44.3594 36.9219 45.4219 36.3242C46.4844 35.5938 47.7461 35.2617 47.7461 35.2617Z" fill="url(#paint17_linear_153_1766)"/>
<path d="M44.7578 33.0703C45.621 32.8047 46.2851 32.6719 46.2851 32.6719L46.1523 32.4062C46.1523 32.4062 45.5546 32.4727 44.8906 32.7383C44.4921 32.8711 44.4257 33.2031 44.7578 33.0703Z" fill="#9DD4F7"/>
<path d="M42.8984 26.8945L43.0313 27.1601C43.0313 27.1601 41.7695 26.8281 40.3086 27.625C39.0469 28.4218 38.7813 29.6836 38.7813 29.6836L38.6484 29.4179C38.6484 29.4179 38.7812 28.289 40.1758 27.4258C41.6367 26.4961 42.8984 26.8945 42.8984 26.8945Z" fill="url(#paint18_linear_153_1766)"/>
<path d="M41.3047 24.0391L41.5039 24.3047C41.5039 24.3047 40.1758 23.7735 38.6485 24.6367C37.1875 25.5664 37.1875 26.8281 37.1875 26.8281L36.9883 26.5625C36.9883 26.5625 36.8555 25.4336 38.4492 24.4375C40.1094 23.4414 41.3047 24.0391 41.3047 24.0391Z" fill="url(#paint19_linear_153_1766)"/>
<path d="M36.8555 47.3477C42.6328 37.3867 49.2735 25.832 49.2735 25.832C50.1367 24.3711 49.6055 22.5117 48.1445 21.6485C46.6836 20.7852 44.8242 21.3164 43.9609 22.7774C43.9609 22.7774 35.8594 36.8555 29.75 47.3477H36.8555ZM33.2695 53.457C30.4805 58.2383 28.5547 61.6914 28.5547 61.6914C27.6914 63.1524 25.832 63.6836 24.3711 62.8203C22.9102 61.957 22.3789 60.0977 23.2422 58.6367C23.2422 58.6367 24.3711 56.5781 26.1641 53.5235C28.4219 53.457 32.5391 53.457 33.2695 53.457Z" fill="white"/>
<path d="M36.125 47.3476C41.9687 37.2539 48.7422 25.5 48.7422 25.5C49.4062 24.3711 49.0078 22.8437 47.8789 22.1797L47.8125 22.1133C46.6836 21.4492 45.1562 21.8476 44.4922 22.9765C44.4922 22.9765 36.5234 36.789 30.414 47.3476H36.125ZM32.6054 53.457C29.9492 58.1054 28.0234 61.4258 28.0234 61.4258C27.3593 62.5547 25.8984 62.9531 24.7031 62.289H24.5703C23.4414 61.625 23.0429 60.164 23.707 58.9687C23.707 58.9687 24.9687 56.7773 26.8945 53.457H32.6054Z" fill="url(#paint20_linear_153_1766)"/>
<path d="M35.9258 47.3477L49.1406 24.5039V24.1055C49.1406 24.1055 41.8359 36.7891 35.7266 47.3477H35.9258ZM32.3398 53.457L27.293 62.2227L27.0937 62.3555L26.8945 62.4219C26.8945 62.4219 29.1523 58.5039 32.0742 53.457H32.3398Z" fill="url(#paint21_linear_153_1766)"/>
<path d="M34.9297 47.3477L48.875 23.2422L48.8086 23.1094L48.7422 22.9766C48.7422 22.9766 41.1055 36.1914 34.7305 47.2812L34.9297 47.3477ZM31.4102 53.457L26.0977 62.6211H25.832C25.832 62.6211 28.0898 58.7031 31.1445 53.3906C31.2773 53.457 31.4102 53.457 31.4102 53.457Z" fill="url(#paint22_linear_153_1766)"/>
<path d="M33.4688 47.3477C40.043 35.9922 47.9453 22.2461 47.9453 22.2461L47.7461 22.1133L33.1367 47.3477H33.4688ZM29.8828 53.5234C26.9609 58.6367 24.7695 62.4219 24.7695 62.4219L24.5703 62.2891C24.5703 62.2891 26.6953 58.5703 29.6172 53.5234C29.75 53.457 29.6836 53.457 29.8828 53.5234Z" fill="url(#paint23_linear_153_1766)"/>
<path d="M31.875 47.3477C38.4492 35.9922 46.6172 21.7812 46.6172 21.7812H46.3516C46.3516 21.7812 38.1836 35.9258 31.6094 47.3477H31.875ZM28.0234 53.457C25.3672 58.0391 23.5742 61.1602 23.5742 61.1602L23.6406 61.293L23.707 61.4258C23.707 61.4258 25.6328 58.1055 28.3555 53.457H28.0234Z" fill="url(#paint24_linear_153_1766)"/>
<path d="M30.8789 47.3477L45.4883 22.0469L45.3555 22.1133L45.2227 22.1797L45.1562 22.2461C45.1562 22.2461 37.0547 36.2578 30.6797 47.3477H30.8789ZM27.3594 53.457C25.0352 57.5078 23.375 60.3633 23.375 60.3633V59.832C23.375 59.832 24.8359 57.3086 27.0937 53.3906C27.2266 53.457 27.2266 53.457 27.3594 53.457Z" fill="url(#paint25_linear_153_1766)"/>
<path d="M43.8281 24.039L43.6953 24.3047C43.6953 24.3047 44.8906 23.707 46.4844 24.5703C47.9453 25.3672 48.0117 26.7617 48.0117 26.7617L48.1445 26.4961C48.1445 26.4961 48.2773 25.2344 46.6172 24.3047C44.957 23.375 43.8281 24.039 43.8281 24.039Z" fill="url(#paint26_linear_153_1766)"/>
<path d="M42.2344 26.8945L42.1016 27.1601C42.1016 27.1601 43.4297 26.7617 44.8242 27.5586C46.1523 28.289 46.418 29.5508 46.418 29.5508L46.5508 29.2851C46.5508 29.2851 46.418 28.0898 44.957 27.2929C43.4297 26.4297 42.2344 26.8945 42.2344 26.8945Z" fill="url(#paint27_linear_153_1766)"/>
<path d="M40.5742 29.6836L40.4414 29.9492C40.4414 29.9492 41.6367 29.8828 42.9648 30.6797C44.1602 31.3438 44.7578 32.4062 44.7578 32.4062L44.8906 32.1406C44.8906 32.1406 44.293 31.0781 43.0977 30.4141C41.8359 29.6836 40.5742 29.6836 40.5742 29.6836Z" fill="url(#paint28_linear_153_1766)"/>
<path d="M38.9805 32.5391L38.8477 32.8047C38.8477 32.8047 40.1758 33.0039 41.3047 33.668C42.3672 34.2656 43.1641 35.2617 43.1641 35.2617L43.2969 34.9961C43.2969 34.9961 42.5 34 41.4375 33.4023C40.3086 32.7383 38.9805 32.5391 38.9805 32.5391Z" fill="url(#paint29_linear_153_1766)"/>
<path d="M37.3203 35.3281L37.1875 35.5937C37.1875 35.5937 38.4492 35.9258 39.5781 36.5898C40.6406 37.1875 41.5039 38.0508 41.5039 38.0508L41.6367 37.7852C41.6367 37.7852 40.7734 36.9219 39.7109 36.3242C38.6484 35.7266 37.3203 35.3281 37.3203 35.3281Z" fill="url(#paint30_linear_153_1766)"/>
<path d="M35.7266 38.1172L35.5273 38.3828C35.5273 38.3828 36.7227 38.8477 37.8516 39.5117C38.9141 40.1094 39.8438 40.8398 39.8438 40.8398L39.9766 40.5742C39.9766 40.5742 39.0469 39.8437 37.9844 39.2461C36.9219 38.6484 35.7266 38.1172 35.7266 38.1172Z" fill="url(#paint31_linear_153_1766)"/>
<path d="M33.9336 41.2383L34.0664 40.9727L38.3828 43.4297L38.25 43.6953L33.9336 41.2383Z" fill="url(#paint32_linear_153_1766)"/>
<path d="M32.3398 44.0938L32.4727 43.8281C32.4727 43.8281 33.5352 44.625 34.6641 45.2227C35.7266 45.8203 36.7891 46.2852 36.7891 46.2852L36.6562 46.4844C36.6562 46.4844 35.5273 46.0195 34.4648 45.4219C33.3359 44.8242 32.3398 44.0938 32.3398 44.0938Z" fill="url(#paint33_linear_153_1766)"/>
<path d="M31.2773 47.3477C30.9453 47.082 30.7461 46.8828 30.7461 46.8828L30.8789 46.6172C30.8789 46.6172 31.2773 46.9492 31.8086 47.3477H31.2773Z" fill="#73B9F1"/>
<path d="M28.6875 53.457C28.9531 53.6563 29.2188 53.8555 29.5508 54.0547C30.7461 54.7188 31.9414 54.6523 31.9414 54.6523L31.8086 54.918C31.8086 54.918 30.6133 54.9844 29.418 54.3203C28.9531 54.0547 28.5547 53.7227 28.2891 53.457H28.6875Z" fill="url(#paint34_linear_153_1766)"/>
<path d="M25.832 55.3164L25.9648 55.0508C25.9648 55.0508 26.2969 56.3789 27.7578 57.1758C29.0859 57.9062 30.2812 57.5078 30.2812 57.5078L30.1484 57.7734C30.1484 57.7734 29.0859 58.2383 27.625 57.4414C26.0977 56.5781 25.832 55.3164 25.832 55.3164Z" fill="url(#paint35_linear_153_1766)"/>
<path d="M24.1719 58.1719L24.3047 57.9062C24.3047 57.9062 24.4375 59.3008 26.0312 60.1641C27.4922 60.9609 28.6211 60.3633 28.6211 60.3633L28.4219 60.6289C28.4219 60.6289 27.4258 61.3594 25.832 60.4297C24.1719 59.5 24.1719 58.1719 24.1719 58.1719Z" fill="url(#paint36_linear_153_1766)"/>
<path d="M45.6875 75.8359L74.1094 16.1367L66.9375 12.75L37.3203 74.8398C37.3203 74.8398 38.25 75.3047 39.4453 75.8359H45.6875Z" fill="url(#paint37_linear_153_1766)"/>
<path d="M62.4883 9.16406L75.7695 15.4727V34.5312C71.1875 32.3398 40.5078 17.7305 40.5078 17.7305C40.5078 17.7305 42.6328 13.2812 44.625 9.16406H62.4883Z" fill="url(#paint38_radial_153_1766)"/>
<path d="M29.5509 73.1797C29.3517 73.5781 29.0196 74.0429 29.086 74.7734C29.1524 77.4961 33.6017 80.0195 36.1915 80.0195C37.9845 80.0195 38.5821 79.289 39.2462 77.9609C39.9102 76.6328 30.2813 71.5859 29.5509 73.1797Z" fill="url(#paint39_radial_153_1766)"/>
<path d="M60.1641 16.668C60.1641 16.668 67.0039 18.3281 67.5352 18.793C68.0664 19.2578 66.6719 21.9141 66.4062 22.3125C64.2148 24.9687 57.375 39.6445 57.375 39.6445L51.0664 36.0586C51.0664 36.0586 56.7109 25.5664 58.7031 21.8477C59.9648 19.3242 60.1641 16.668 60.1641 16.668Z" fill="url(#paint40_linear_153_1766)"/>
<path d="M75.9688 13.2149C77.1641 14.0781 78.7579 13.8789 80.0196 13.6797C80.8829 13.5469 79.5547 14.8086 78.0938 17.7305C76.6329 20.6524 76.6993 20.8516 76.5 20.6524C76.3008 20.4531 69.7266 16.7344 69.9258 16.4024C70.1914 16.0703 71.2539 8.83204 71.7852 9.03126C73.711 9.4961 74.043 11.8203 75.9688 13.2149Z" fill="url(#paint41_linear_153_1766)"/>
<path d="M65.7421 21.3828C66.207 20.6523 68.332 16.1367 71.7187 16.1367C73.246 16.1367 76.1679 19.9883 76.4335 20.5195C76.6328 20.9844 75.9687 22.8437 75.6367 21.9805C75.2382 20.9844 73.5781 18.8594 71.7851 18.8594C69.9921 18.8594 67.5351 20.918 66.9374 21.6484C66.3398 22.3125 65.2773 22.1133 65.7421 21.3828Z" fill="url(#paint42_linear_153_1766)"/>
<path d="M65.6094 21.1172C65.9414 20.5859 67.4687 18.2617 68.1992 17.5312C68.9297 16.8008 70.789 14.875 72.3828 14.6094C73.9765 14.3438 75.6367 17.5977 75.1055 18.2617C74.707 18.7266 74.043 18.1953 73.2461 17.5312C72.4492 16.9336 71.918 15.7383 69.3945 17.6641C68.5312 18.3281 67.668 18.8594 65.6758 21.7148C65.1445 22.4453 65.2773 21.6484 65.6094 21.1172Z" fill="url(#paint43_linear_153_1766)"/>
<path d="M57.3749 40.5078C57.6406 39.9765 57.9726 39.1797 57.2421 38.582C56.4452 37.9844 52.7265 35.9922 52.0624 35.8594C51.3984 35.7265 50.8671 35.8594 50.6015 36.3242C50.3359 36.789 29.9491 71.7187 29.5507 72.7148C29.1523 73.7109 29.0859 74.4414 29.6835 74.6406C30.2812 74.8398 37.121 78.0937 37.7851 78.8242C38.4491 79.5547 38.7812 78.7578 39.0468 78.3594C40.3085 76.7656 57.0429 41.039 57.3749 40.5078Z" fill="url(#paint44_linear_153_1766)"/>
<path d="M66.0742 20.9844C66.4063 20.5195 67.2031 19.1914 68.1992 17.9961C68.8633 17.1992 72.4492 15.4727 73.2461 12.6836C73.7109 11.1563 72.9805 9.62891 71.9844 8.96484C68.5977 6.90625 62.7539 3.65234 54.1875 3.65234C48.4102 3.65234 45.9531 5.57812 45.9531 5.57812H48.875L59.0352 9.5625L60.2969 14.875C60.2969 14.875 60.4297 16.668 59.832 18.7266C59.4336 20.3867 59.3008 21.3828 58.7031 23.043C59.168 23.2422 60.2305 22.5117 61.4258 22.8438C62.4883 23.1094 63.1523 24.5703 63.8828 23.707C65.1445 22.0469 65.543 21.7148 66.0742 20.9844Z" fill="url(#paint45_linear_153_1766)"/>
<path d="M60.0977 16.8672C59.5664 11.9531 58.3711 7.30467 45.8867 7.37107C46.6836 6.5742 48.6094 5.77732 48.6094 5.77732L45.8867 5.5781C45.8867 5.5781 46.2852 5.24607 47.082 5.17967C54.3867 4.58201 60.8945 6.10936 60.4297 15.6054C60.3633 17.1328 60.2305 17.7969 60.0977 16.8672Z" fill="url(#paint46_linear_153_1766)"/>
<path d="M45.8867 7.3711C46.75 7.03907 47.9453 6.83985 50.2031 6.97266C52.9922 7.10547 56.5117 8.16797 57.9727 9.4961C58.7031 10.1602 58.6367 9.62891 57.8398 8.76563C55.7812 6.375 52.6602 5.84375 48.6094 5.77735C48.1445 5.71094 46.6172 6.57422 45.8867 7.3711Z" fill="url(#paint47_linear_153_1766)"/>
<path d="M80.1523 13.6797L83.8047 15.5391C83.8047 15.5391 82.4102 17.3984 81.2813 19.5234C80.0859 21.7812 79.2891 24.2383 79.2891 24.2383L75.7695 22.1133C75.7695 22.1133 76.6328 19.7227 77.8945 17.3984C78.8906 15.4727 80.1523 13.6797 80.1523 13.6797Z" fill="url(#paint48_linear_153_1766)"/>
<path d="M83.8047 15.539C84.0704 15.6719 83.2071 17.7305 81.9454 20.1211C80.6836 22.5117 79.4883 24.3711 79.2891 24.2383C79.0235 24.1055 79.8868 22.0469 81.1485 19.6562C82.3438 17.2656 83.5391 15.4062 83.8047 15.539Z" fill="#BFC0D0"/>
<defs>
<linearGradient id="paint0_linear_153_1766" x1="42.4648" y1="75.8127" x2="42.4648" y2="9.15344" gradientUnits="userSpaceOnUse">
<stop stop-color="#1578E4"/>
<stop offset="1" stop-color="#00C3F2"/>
</linearGradient>
<linearGradient id="paint1_linear_153_1766" x1="62.4464" y1="52.9032" x2="62.4464" y2="47.9347" gradientUnits="userSpaceOnUse">
<stop stop-color="#1492E7"/>
<stop offset="1" stop-color="#DBEDFB"/>
</linearGradient>
<linearGradient id="paint2_linear_153_1766" x1="59.1295" y1="52.9032" x2="59.1295" y2="47.9347" gradientUnits="userSpaceOnUse">
<stop stop-color="#1492E7"/>
<stop offset="1" stop-color="#DBEDFB"/>
</linearGradient>
<linearGradient id="paint3_linear_153_1766" x1="42.4648" y1="52.9032" x2="42.4648" y2="47.9347" gradientUnits="userSpaceOnUse">
<stop stop-color="#1492E7"/>
<stop offset="1" stop-color="#DBEDFB"/>
</linearGradient>
<linearGradient id="paint4_linear_153_1766" x1="39.1478" y1="52.9032" x2="39.1478" y2="47.9347" gradientUnits="userSpaceOnUse">
<stop stop-color="#1492E7"/>
<stop offset="1" stop-color="#DBEDFB"/>
</linearGradient>
<linearGradient id="paint5_linear_153_1766" x1="35.8315" y1="52.9032" x2="35.8315" y2="47.9347" gradientUnits="userSpaceOnUse">
<stop stop-color="#1492E7"/>
<stop offset="1" stop-color="#DBEDFB"/>
</linearGradient>
<linearGradient id="paint6_linear_153_1766" x1="32.5145" y1="52.9032" x2="32.5145" y2="47.9347" gradientUnits="userSpaceOnUse">
<stop stop-color="#1492E7"/>
<stop offset="1" stop-color="#DBEDFB"/>
</linearGradient>
<linearGradient id="paint7_linear_153_1766" x1="29.1975" y1="52.9032" x2="29.1975" y2="47.9347" gradientUnits="userSpaceOnUse">
<stop stop-color="#1492E7"/>
<stop offset="1" stop-color="#DBEDFB"/>
</linearGradient>
<linearGradient id="paint8_linear_153_1766" x1="25.8002" y1="52.9032" x2="25.8002" y2="47.9347" gradientUnits="userSpaceOnUse">
<stop stop-color="#1492E7"/>
<stop offset="1" stop-color="#DBEDFB"/>
</linearGradient>
<linearGradient id="paint9_linear_153_1766" x1="22.4832" y1="52.9032" x2="22.4832" y2="47.9347" gradientUnits="userSpaceOnUse">
<stop stop-color="#1492E7"/>
<stop offset="1" stop-color="#DBEDFB"/>
</linearGradient>
<linearGradient id="paint10_linear_153_1766" x1="48.8617" y1="62.5879" x2="48.8617" y2="21.6763" gradientUnits="userSpaceOnUse">
<stop stop-color="#1285E7"/>
<stop offset="1" stop-color="#00B5EF"/>
</linearGradient>
<linearGradient id="paint11_linear_153_1766" x1="58.0816" y1="62.4073" x2="35.9132" y2="24.0098" gradientUnits="userSpaceOnUse">
<stop stop-color="#2B90E7"/>
<stop offset="1" stop-color="#00B6EF"/>
</linearGradient>
<linearGradient id="paint12_linear_153_1766" x1="59.15" y1="62.639" x2="36.2465" y2="22.9693" gradientUnits="userSpaceOnUse">
<stop stop-color="#3795EA"/>
<stop offset="1" stop-color="#49C4F2"/>
</linearGradient>
<linearGradient id="paint13_linear_153_1766" x1="60.4469" y1="62.2459" x2="37.2353" y2="22.0422" gradientUnits="userSpaceOnUse">
<stop stop-color="#3696EA"/>
<stop offset="1" stop-color="#90D9F6"/>
</linearGradient>
<linearGradient id="paint14_linear_153_1766" x1="61.4802" y1="61.3142" x2="38.5588" y2="21.6132" gradientUnits="userSpaceOnUse">
<stop stop-color="#3097EA"/>
<stop offset="1" stop-color="#B5E5F9"/>
</linearGradient>
<linearGradient id="paint15_linear_153_1766" x1="61.8129" y1="60.2212" x2="39.6718" y2="21.8716" gradientUnits="userSpaceOnUse">
<stop stop-color="#3A98EA"/>
<stop offset="1" stop-color="#BCE7FA"/>
</linearGradient>
<linearGradient id="paint16_linear_153_1766" x1="45.1436" y1="40.6579" x2="49.4441" y2="38.175" gradientUnits="userSpaceOnUse">
<stop stop-color="#00A4EC"/>
<stop offset="1" stop-color="#B9DFF6"/>
</linearGradient>
<linearGradient id="paint17_linear_153_1766" x1="43.4875" y1="37.7891" x2="47.7873" y2="35.3062" gradientUnits="userSpaceOnUse">
<stop stop-color="#00A4EC"/>
<stop offset="1" stop-color="#B9DFF6"/>
</linearGradient>
<linearGradient id="paint18_linear_153_1766" x1="38.4691" y1="29.0985" x2="42.7417" y2="26.6322" gradientUnits="userSpaceOnUse">
<stop stop-color="#00B4EF"/>
<stop offset="1" stop-color="#C3E9FA"/>
</linearGradient>
<linearGradient id="paint19_linear_153_1766" x1="36.805" y1="26.2152" x2="41.1055" y2="23.7323" gradientUnits="userSpaceOnUse">
<stop stop-color="#00B4EF"/>
<stop offset="1" stop-color="#C3E9FA"/>
</linearGradient>
<linearGradient id="paint20_linear_153_1766" x1="36.2352" y1="62.6881" x2="36.2352" y2="21.7772" gradientUnits="userSpaceOnUse">
<stop stop-color="#1285E7"/>
<stop offset="1" stop-color="#00B5EF"/>
</linearGradient>
<linearGradient id="paint21_linear_153_1766" x1="27.0147" y1="62.5089" x2="49.1831" y2="24.1128" gradientUnits="userSpaceOnUse">
<stop stop-color="#3194E9"/>
<stop offset="1" stop-color="#71CFF4"/>
</linearGradient>
<linearGradient id="paint22_linear_153_1766" x1="25.9403" y1="62.742" x2="48.8465" y2="23.0669" gradientUnits="userSpaceOnUse">
<stop stop-color="#5AA6EC"/>
<stop offset="1" stop-color="#A2DEF8"/>
</linearGradient>
<linearGradient id="paint23_linear_153_1766" x1="24.6487" y1="62.3455" x2="47.8603" y2="22.1418" gradientUnits="userSpaceOnUse">
<stop stop-color="#66ABEE"/>
<stop offset="1" stop-color="#BEE8FA"/>
</linearGradient>
<linearGradient id="paint24_linear_153_1766" x1="23.6194" y1="61.4138" x2="46.5408" y2="21.7129" gradientUnits="userSpaceOnUse">
<stop stop-color="#7BB6F0"/>
<stop offset="1" stop-color="#B1E3F9"/>
</linearGradient>
<linearGradient id="paint25_linear_153_1766" x1="23.2794" y1="60.3447" x2="45.4318" y2="21.9752" gradientUnits="userSpaceOnUse">
<stop stop-color="#5AA6EC"/>
<stop offset="1" stop-color="#AFE3F9"/>
</linearGradient>
<linearGradient id="paint26_linear_153_1766" x1="44.0685" y1="23.6997" x2="48.369" y2="26.1826" gradientUnits="userSpaceOnUse">
<stop stop-color="#C1E7FA"/>
<stop offset="1" stop-color="#89D4F5"/>
</linearGradient>
<linearGradient id="paint27_linear_153_1766" x1="42.4044" y1="26.5824" x2="46.7048" y2="29.0647" gradientUnits="userSpaceOnUse">
<stop stop-color="#C1E7FA"/>
<stop offset="1" stop-color="#89D4F5"/>
</linearGradient>
<linearGradient id="paint28_linear_153_1766" x1="40.6891" y1="29.5541" x2="44.9889" y2="32.0364" gradientUnits="userSpaceOnUse">
<stop stop-color="#C1E7FA"/>
<stop offset="1" stop-color="#89D4F5"/>
</linearGradient>
<linearGradient id="paint29_linear_153_1766" x1="39.021" y1="32.4428" x2="43.3208" y2="34.9257" gradientUnits="userSpaceOnUse">
<stop stop-color="#B0DFF8"/>
<stop offset="1" stop-color="#52BDF2"/>
</linearGradient>
<linearGradient id="paint30_linear_153_1766" x1="37.3535" y1="35.3308" x2="41.6546" y2="37.8137" gradientUnits="userSpaceOnUse">
<stop stop-color="#B4DEF8"/>
<stop offset="1" stop-color="#4EB5F0"/>
</linearGradient>
<linearGradient id="paint31_linear_153_1766" x1="35.6867" y1="38.2188" x2="39.9865" y2="40.7011" gradientUnits="userSpaceOnUse">
<stop stop-color="#B4DEF8"/>
<stop offset="1" stop-color="#4EB5F0"/>
</linearGradient>
<linearGradient id="paint32_linear_153_1766" x1="34.0259" y1="41.0962" x2="38.325" y2="43.5784" gradientUnits="userSpaceOnUse">
<stop stop-color="#B5DDF8"/>
<stop offset="1" stop-color="#46AEEE"/>
</linearGradient>
<linearGradient id="paint33_linear_153_1766" x1="32.3631" y1="43.9742" x2="36.6636" y2="46.4571" gradientUnits="userSpaceOnUse">
<stop stop-color="#96CEF4"/>
<stop offset="1" stop-color="#46AAEE"/>
</linearGradient>
<linearGradient id="paint34_linear_153_1766" x1="28.3681" y1="53.2146" x2="31.6632" y2="55.1172" gradientUnits="userSpaceOnUse">
<stop stop-color="#8FC1F2"/>
<stop offset="1" stop-color="#3193EA"/>
</linearGradient>
<linearGradient id="paint35_linear_153_1766" x1="25.6554" y1="55.5933" x2="29.9559" y2="58.0762" gradientUnits="userSpaceOnUse">
<stop stop-color="#8FC1F2"/>
<stop offset="1" stop-color="#3193EA"/>
</linearGradient>
<linearGradient id="paint36_linear_153_1766" x1="23.9886" y1="58.4793" x2="28.2884" y2="60.9623" gradientUnits="userSpaceOnUse">
<stop stop-color="#8FC1F2"/>
<stop offset="1" stop-color="#3193EA"/>
</linearGradient>
<linearGradient id="paint37_linear_153_1766" x1="50.9482" y1="43.1196" x2="59.2204" y2="47.1537" gradientUnits="userSpaceOnUse">
<stop offset="0.001"/>
<stop offset="1" stop-opacity="0"/>
</linearGradient>
<radialGradient id="paint38_radial_153_1766" cx="0" cy="0" r="1" gradientUnits="userSpaceOnUse" gradientTransform="translate(63.2453 16.6879) rotate(116.706) scale(10.7449 18.5926)">
<stop/>
<stop offset="1" stop-opacity="0"/>
</radialGradient>
<radialGradient id="paint39_radial_153_1766" cx="0" cy="0" r="1" gradientUnits="userSpaceOnUse" gradientTransform="translate(34.0048 76.339) rotate(26.1166) scale(5.24676 2.98662)">
<stop offset="0.417" stop-color="#0C0C12"/>
<stop offset="1" stop-color="#3D4651"/>
</radialGradient>
<linearGradient id="paint40_linear_153_1766" x1="56.2846" y1="26.014" x2="62.7685" y2="29.3177" gradientUnits="userSpaceOnUse">
<stop stop-color="#344351"/>
<stop offset="0.1" stop-color="#9697A0"/>
<stop offset="0.181" stop-color="#8B8C95"/>
<stop offset="0.351" stop-color="#787A83"/>
<stop offset="0.47" stop-color="#71747D"/>
<stop offset="0.591" stop-color="#777982"/>
<stop offset="0.749" stop-color="#87898F"/>
<stop offset="0.8" stop-color="#8E8F94"/>
<stop offset="0.849" stop-color="#3D3B42"/>
<stop offset="0.9" stop-color="#606E84"/>
</linearGradient>
<linearGradient id="paint41_linear_153_1766" x1="78.2824" y1="19.4285" x2="70.9638" y2="9.5386" gradientUnits="userSpaceOnUse">
<stop offset="0.27" stop-color="#262B33"/>
<stop offset="0.45" stop-color="#74747E"/>
<stop offset="0.54" stop-color="#B0B0BC"/>
<stop offset="0.73" stop-color="#74747E"/>
</linearGradient>
<linearGradient id="paint42_linear_153_1766" x1="65.438" y1="20.2034" x2="76.2443" y2="18.8076" gradientUnits="userSpaceOnUse">
<stop offset="0.14" stop-color="#606E84"/>
<stop offset="0.4" stop-color="#9899A5"/>
<stop offset="0.73" stop-color="#475768"/>
<stop offset="0.92" stop-color="#262B33"/>
</linearGradient>
<linearGradient id="paint43_linear_153_1766" x1="70.4756" y1="21.1225" x2="69.4271" y2="15.1765" gradientUnits="userSpaceOnUse">
<stop stop-color="#101215" stop-opacity="0.1"/>
<stop offset="0.46" stop-color="#101215" stop-opacity="0.7"/>
<stop offset="0.7" stop-color="#474951"/>
<stop offset="0.91" stop-color="#7B7D88"/>
</linearGradient>
<linearGradient id="paint44_linear_153_1766" x1="38.6025" y1="54.2678" x2="48.6339" y2="59.2038" gradientUnits="userSpaceOnUse">
<stop offset="0.115" stop-color="#2C3952"/>
<stop offset="0.374" stop-color="#3D414E"/>
<stop offset="0.55" stop-color="#474A54"/>
<stop offset="0.754" stop-color="#4E5057"/>
<stop offset="0.892" stop-color="#323945"/>
<stop offset="1" stop-color="#143052"/>
</linearGradient>
<linearGradient id="paint45_linear_153_1766" x1="54.1264" y1="21.0368" x2="61.884" y2="4.01559" gradientUnits="userSpaceOnUse">
<stop offset="0.118" stop-color="#6D7078" stop-opacity="0"/>
<stop offset="0.2" stop-color="#6D7078" stop-opacity="0.7"/>
<stop offset="0.34" stop-color="#35363A"/>
<stop offset="0.374" stop-color="#1D1F22"/>
<stop offset="0.4" stop-color="#101215"/>
<stop offset="0.5" stop-color="#16171A"/>
<stop offset="0.56" stop-color="#292A2E"/>
<stop offset="0.688" stop-color="#4B4D51"/>
<stop offset="0.807" stop-color="#63666B"/>
<stop offset="0.915" stop-color="#72757B"/>
<stop offset="1" stop-color="#777A80"/>
</linearGradient>
<linearGradient id="paint46_linear_153_1766" x1="45.8628" y1="11.1808" x2="60.447" y2="11.1808" gradientUnits="userSpaceOnUse">
<stop stop-color="#4A4D56"/>
<stop offset="1" stop-color="#29292D"/>
</linearGradient>
<linearGradient id="paint47_linear_153_1766" x1="45.8628" y1="7.76754" x2="58.4734" y2="7.76754" gradientUnits="userSpaceOnUse">
<stop stop-color="#767880"/>
<stop offset="0.41" stop-color="#0C0A0B"/>
</linearGradient>
<linearGradient id="paint48_linear_153_1766" x1="77.2517" y1="23.0802" x2="82.1492" y2="14.5974" gradientUnits="userSpaceOnUse">
<stop stop-color="#858997"/>
<stop offset="0.23" stop-color="#244668"/>
<stop offset="0.282" stop-color="#1A3249"/>
<stop offset="0.4" stop-color="#040506"/>
<stop offset="0.464" stop-color="#313236"/>
<stop offset="0.546" stop-color="#65656E"/>
<stop offset="0.607" stop-color="#868691"/>
<stop offset="0.64" stop-color="#92929E"/>
</linearGradient>
</defs>
</svg>
